solid CATIA STL
  facet normal  1.000000e+000  -0.000000e+000  0.000000e+000
    outer loop
      vertex  2.500000e-002  8.660001e-001  2.500000e-002
      vertex  2.500000e-002  0.000000e+000  2.500000e-002
      vertex  2.500000e-002  8.719829e-001  2.427355e-002
    endloop
  endfacet
  facet normal  1.000000e+000  0.000000e+000  0.000000e+000
    outer loop
      vertex  2.500000e-002  8.719829e-001  2.427355e-002
      vertex  2.500000e-002  0.000000e+000  2.500000e-002
      vertex  2.500000e-002 -5.982892e-003  2.427355e-002
    endloop
  endfacet
  facet normal  1.000000e+000  -0.000000e+000  0.000000e+000
    outer loop
      vertex  2.500000e-002  8.719829e-001  2.427355e-002
      vertex  2.500000e-002 -5.982892e-003  2.427355e-002
      vertex  2.500000e-002  8.776181e-001  2.213640e-002
    endloop
  endfacet
  facet normal  1.000000e+000  0.000000e+000  0.000000e+000
    outer loop
      vertex  2.500000e-002  8.776181e-001  2.213640e-002
      vertex  2.500000e-002 -5.982892e-003  2.427355e-002
      vertex  2.500000e-002 -1.161808e-002  2.213640e-002
    endloop
  endfacet
  facet normal  1.000000e+000  -0.000000e+000  0.000000e+000
    outer loop
      vertex  2.500000e-002  8.776181e-001  2.213640e-002
      vertex  2.500000e-002 -1.161808e-002  2.213640e-002
      vertex  2.500000e-002  8.825781e-001  1.871277e-002
    endloop
  endfacet
  facet normal  1.000000e+000  0.000000e+000  0.000000e+000
    outer loop
      vertex  2.500000e-002  8.825781e-001  1.871277e-002
      vertex  2.500000e-002 -1.161808e-002  2.213640e-002
      vertex  2.500000e-002 -1.657807e-002  1.871277e-002
    endloop
  endfacet
  facet normal  1.000000e+000  -0.000000e+000  0.000000e+000
    outer loop
      vertex  2.500000e-002  8.825781e-001  1.871277e-002
      vertex  2.500000e-002 -1.657807e-002  1.871277e-002
      vertex  2.500000e-002  8.865746e-001  1.420162e-002
    endloop
  endfacet
  facet normal  9.999999e-001  0.000000e+000  0.000000e+000
    outer loop
      vertex  2.500000e-002  8.865746e-001  1.420162e-002
      vertex  2.500000e-002 -1.657807e-002  1.871277e-002
      vertex  2.500000e-002 -2.057460e-002  1.420162e-002
    endloop
  endfacet
  facet normal  1.000000e+000  -0.000000e+000  0.000000e+000
    outer loop
      vertex  2.500000e-002  8.865746e-001  1.420162e-002
      vertex  2.500000e-002 -2.057460e-002  1.420162e-002
      vertex  2.500000e-002  8.893754e-001  8.865123e-003
    endloop
  endfacet
  facet normal  1.000000e+000  0.000000e+000  0.000000e+000
    outer loop
      vertex  2.500000e-002  8.893754e-001  8.865123e-003
      vertex  2.500000e-002 -2.057460e-002  1.420162e-002
      vertex  2.500000e-002 -2.337541e-002  8.865123e-003
    endloop
  endfacet
  facet normal  1.000000e+000  -0.000000e+000  0.000000e+000
    outer loop
      vertex  2.500000e-002  8.893754e-001  8.865123e-003
      vertex  2.500000e-002 -2.337541e-002  8.865123e-003
      vertex  2.500000e-002  8.908178e-001  3.013417e-003
    endloop
  endfacet
  facet normal  1.000000e+000  0.000000e+000  0.000000e+000
    outer loop
      vertex  2.500000e-002  8.908178e-001  3.013417e-003
      vertex  2.500000e-002 -2.337541e-002  8.865123e-003
      vertex  2.500000e-002 -2.481772e-002  3.013417e-003
    endloop
  endfacet
  facet normal  1.000000e+000  -0.000000e+000  0.000000e+000
    outer loop
      vertex  2.500000e-002  8.908178e-001  3.013417e-003
      vertex  2.500000e-002 -2.481772e-002  3.013417e-003
      vertex  2.500000e-002  8.908178e-001 -3.013417e-003
    endloop
  endfacet
  facet normal  1.000000e+000  0.000000e+000  0.000000e+000
    outer loop
      vertex  2.500000e-002  8.908178e-001 -3.013417e-003
      vertex  2.500000e-002 -2.481772e-002  3.013417e-003
      vertex  2.500000e-002 -2.481772e-002 -3.013417e-003
    endloop
  endfacet
  facet normal  1.000000e+000  -0.000000e+000  0.000000e+000
    outer loop
      vertex  2.500000e-002  8.908178e-001 -3.013417e-003
      vertex  2.500000e-002 -2.481772e-002 -3.013417e-003
      vertex  2.500000e-002  8.893754e-001 -8.865123e-003
    endloop
  endfacet
  facet normal  1.000000e+000  0.000000e+000  0.000000e+000
    outer loop
      vertex  2.500000e-002  8.893754e-001 -8.865123e-003
      vertex  2.500000e-002 -2.481772e-002 -3.013417e-003
      vertex  2.500000e-002 -2.337541e-002 -8.865123e-003
    endloop
  endfacet
  facet normal  1.000000e+000  -0.000000e+000  0.000000e+000
    outer loop
      vertex  2.500000e-002  8.893754e-001 -8.865123e-003
      vertex  2.500000e-002 -2.337541e-002 -8.865123e-003
      vertex  2.500000e-002  8.865746e-001 -1.420162e-002
    endloop
  endfacet
  facet normal  1.000000e+000  0.000000e+000  0.000000e+000
    outer loop
      vertex  2.500000e-002  8.865746e-001 -1.420162e-002
      vertex  2.500000e-002 -2.337541e-002 -8.865123e-003
      vertex  2.500000e-002 -2.057460e-002 -1.420162e-002
    endloop
  endfacet
  facet normal  9.999999e-001  -0.000000e+000  0.000000e+000
    outer loop
      vertex  2.500000e-002  8.865746e-001 -1.420162e-002
      vertex  2.500000e-002 -2.057460e-002 -1.420162e-002
      vertex  2.500000e-002  8.825781e-001 -1.871277e-002
    endloop
  endfacet
  facet normal  1.000000e+000  0.000000e+000  0.000000e+000
    outer loop
      vertex  2.500000e-002  8.825781e-001 -1.871277e-002
      vertex  2.500000e-002 -2.057460e-002 -1.420162e-002
      vertex  2.500000e-002 -1.657807e-002 -1.871277e-002
    endloop
  endfacet
  facet normal  1.000000e+000  -0.000000e+000  0.000000e+000
    outer loop
      vertex  2.500000e-002  8.825781e-001 -1.871277e-002
      vertex  2.500000e-002 -1.657807e-002 -1.871277e-002
      vertex  2.500000e-002  8.776181e-001 -2.213640e-002
    endloop
  endfacet
  facet normal  1.000000e+000  0.000000e+000  0.000000e+000
    outer loop
      vertex  2.500000e-002  8.776181e-001 -2.213640e-002
      vertex  2.500000e-002 -1.657807e-002 -1.871277e-002
      vertex  2.500000e-002 -1.161808e-002 -2.213640e-002
    endloop
  endfacet
  facet normal  1.000000e+000  -0.000000e+000  0.000000e+000
    outer loop
      vertex  2.500000e-002  8.776181e-001 -2.213640e-002
      vertex  2.500000e-002 -1.161808e-002 -2.213640e-002
      vertex  2.500000e-002  8.719829e-001 -2.427355e-002
    endloop
  endfacet
  facet normal  1.000000e+000  0.000000e+000  0.000000e+000
    outer loop
      vertex  2.500000e-002  8.719829e-001 -2.427355e-002
      vertex  2.500000e-002 -1.161808e-002 -2.213640e-002
      vertex  2.500000e-002 -5.982892e-003 -2.427355e-002
    endloop
  endfacet
  facet normal  1.000000e+000  -0.000000e+000  0.000000e+000
    outer loop
      vertex  2.500000e-002  8.719829e-001 -2.427355e-002
      vertex  2.500000e-002 -5.982892e-003 -2.427355e-002
      vertex  2.500000e-002  8.660001e-001 -2.500000e-002
    endloop
  endfacet
  facet normal  1.000000e+000  0.000000e+000  0.000000e+000
    outer loop
      vertex  2.500000e-002  8.660001e-001 -2.500000e-002
      vertex  2.500000e-002 -5.982892e-003 -2.427355e-002
      vertex  2.500000e-002 -4.592426e-018 -2.500000e-002
    endloop
  endfacet
  facet normal -1.000000e+000  0.000000e+000  0.000000e+000
    outer loop
      vertex -2.500000e-002  8.908178e-001  3.013417e-003
      vertex -2.500000e-002 -2.337541e-002  8.865123e-003
      vertex -2.500000e-002  8.893754e-001  8.865123e-003
    endloop
  endfacet
  facet normal -1.000000e+000  0.000000e+000  0.000000e+000
    outer loop
      vertex -2.500000e-002  8.893754e-001  8.865123e-003
      vertex -2.500000e-002 -2.337541e-002  8.865123e-003
      vertex -2.500000e-002 -2.057460e-002  1.420162e-002
    endloop
  endfacet
  facet normal -1.000000e+000  0.000000e+000  0.000000e+000
    outer loop
      vertex -2.500000e-002  8.893754e-001  8.865123e-003
      vertex -2.500000e-002 -2.057460e-002  1.420162e-002
      vertex -2.500000e-002  8.865746e-001  1.420162e-002
    endloop
  endfacet
  facet normal -9.999999e-001  0.000000e+000  0.000000e+000
    outer loop
      vertex -2.500000e-002  8.865746e-001  1.420162e-002
      vertex -2.500000e-002 -2.057460e-002  1.420162e-002
      vertex -2.500000e-002 -1.657807e-002  1.871277e-002
    endloop
  endfacet
  facet normal -1.000000e+000  0.000000e+000  0.000000e+000
    outer loop
      vertex -2.500000e-002  8.865746e-001  1.420162e-002
      vertex -2.500000e-002 -1.657807e-002  1.871277e-002
      vertex -2.500000e-002  8.825781e-001  1.871277e-002
    endloop
  endfacet
  facet normal -1.000000e+000  0.000000e+000  0.000000e+000
    outer loop
      vertex -2.500000e-002  8.825781e-001  1.871277e-002
      vertex -2.500000e-002 -1.657807e-002  1.871277e-002
      vertex -2.500000e-002 -1.161808e-002  2.213640e-002
    endloop
  endfacet
  facet normal -1.000000e+000  0.000000e+000  0.000000e+000
    outer loop
      vertex -2.500000e-002  8.825781e-001  1.871277e-002
      vertex -2.500000e-002 -1.161808e-002  2.213640e-002
      vertex -2.500000e-002  8.776181e-001  2.213640e-002
    endloop
  endfacet
  facet normal -1.000000e+000  0.000000e+000  0.000000e+000
    outer loop
      vertex -2.500000e-002  8.776181e-001  2.213640e-002
      vertex -2.500000e-002 -1.161808e-002  2.213640e-002
      vertex -2.500000e-002 -5.982892e-003  2.427355e-002
    endloop
  endfacet
  facet normal -1.000000e+000  0.000000e+000  0.000000e+000
    outer loop
      vertex -2.500000e-002  8.776181e-001  2.213640e-002
      vertex -2.500000e-002 -5.982892e-003  2.427355e-002
      vertex -2.500000e-002  8.719829e-001  2.427355e-002
    endloop
  endfacet
  facet normal -1.000000e+000  0.000000e+000  0.000000e+000
    outer loop
      vertex -2.500000e-002  8.719829e-001  2.427355e-002
      vertex -2.500000e-002 -5.982892e-003  2.427355e-002
      vertex -2.500000e-002  0.000000e+000  2.500000e-002
    endloop
  endfacet
  facet normal -1.000000e+000  0.000000e+000  0.000000e+000
    outer loop
      vertex -2.500000e-002  8.719829e-001  2.427355e-002
      vertex -2.500000e-002  0.000000e+000  2.500000e-002
      vertex -2.500000e-002  8.660001e-001  2.500000e-002
    endloop
  endfacet
  facet normal -1.000000e+000  0.000000e+000  0.000000e+000
    outer loop
      vertex -2.500000e-002 -2.337541e-002  8.865123e-003
      vertex -2.500000e-002  8.908178e-001  3.013417e-003
      vertex -2.500000e-002 -2.481772e-002  3.013417e-003
    endloop
  endfacet
  facet normal -1.000000e+000  0.000000e+000  0.000000e+000
    outer loop
      vertex -2.500000e-002 -2.481772e-002  3.013417e-003
      vertex -2.500000e-002  8.908178e-001  3.013417e-003
      vertex -2.500000e-002  8.908178e-001 -3.013417e-003
    endloop
  endfacet
  facet normal -1.000000e+000  0.000000e+000  0.000000e+000
    outer loop
      vertex -2.500000e-002 -2.481772e-002  3.013417e-003
      vertex -2.500000e-002  8.908178e-001 -3.013417e-003
      vertex -2.500000e-002 -2.481772e-002 -3.013417e-003
    endloop
  endfacet
  facet normal -1.000000e+000  0.000000e+000  0.000000e+000
    outer loop
      vertex -2.500000e-002 -2.481772e-002 -3.013417e-003
      vertex -2.500000e-002  8.908178e-001 -3.013417e-003
      vertex -2.500000e-002  8.893754e-001 -8.865123e-003
    endloop
  endfacet
  facet normal -1.000000e+000  0.000000e+000  0.000000e+000
    outer loop
      vertex -2.500000e-002 -2.481772e-002 -3.013417e-003
      vertex -2.500000e-002  8.893754e-001 -8.865123e-003
      vertex -2.500000e-002 -2.337541e-002 -8.865123e-003
    endloop
  endfacet
  facet normal -1.000000e+000  0.000000e+000  0.000000e+000
    outer loop
      vertex -2.500000e-002 -2.337541e-002 -8.865123e-003
      vertex -2.500000e-002  8.893754e-001 -8.865123e-003
      vertex -2.500000e-002  8.865746e-001 -1.420162e-002
    endloop
  endfacet
  facet normal -1.000000e+000  0.000000e+000  0.000000e+000
    outer loop
      vertex -2.500000e-002 -2.337541e-002 -8.865123e-003
      vertex -2.500000e-002  8.865746e-001 -1.420162e-002
      vertex -2.500000e-002 -2.057460e-002 -1.420162e-002
    endloop
  endfacet
  facet normal -9.999999e-001  0.000000e+000  0.000000e+000
    outer loop
      vertex -2.500000e-002 -2.057460e-002 -1.420162e-002
      vertex -2.500000e-002  8.865746e-001 -1.420162e-002
      vertex -2.500000e-002  8.825781e-001 -1.871277e-002
    endloop
  endfacet
  facet normal -1.000000e+000  0.000000e+000  0.000000e+000
    outer loop
      vertex -2.500000e-002 -2.057460e-002 -1.420162e-002
      vertex -2.500000e-002  8.825781e-001 -1.871277e-002
      vertex -2.500000e-002 -1.657807e-002 -1.871277e-002
    endloop
  endfacet
  facet normal -1.000000e+000  0.000000e+000  0.000000e+000
    outer loop
      vertex -2.500000e-002 -1.657807e-002 -1.871277e-002
      vertex -2.500000e-002  8.825781e-001 -1.871277e-002
      vertex -2.500000e-002  8.776181e-001 -2.213640e-002
    endloop
  endfacet
  facet normal -1.000000e+000  0.000000e+000  0.000000e+000
    outer loop
      vertex -2.500000e-002 -1.657807e-002 -1.871277e-002
      vertex -2.500000e-002  8.776181e-001 -2.213640e-002
      vertex -2.500000e-002 -1.161808e-002 -2.213640e-002
    endloop
  endfacet
  facet normal -1.000000e+000  0.000000e+000  0.000000e+000
    outer loop
      vertex -2.500000e-002 -1.161808e-002 -2.213640e-002
      vertex -2.500000e-002  8.776181e-001 -2.213640e-002
      vertex -2.500000e-002  8.719829e-001 -2.427355e-002
    endloop
  endfacet
  facet normal -1.000000e+000  0.000000e+000  0.000000e+000
    outer loop
      vertex -2.500000e-002 -1.161808e-002 -2.213640e-002
      vertex -2.500000e-002  8.719829e-001 -2.427355e-002
      vertex -2.500000e-002 -5.982892e-003 -2.427355e-002
    endloop
  endfacet
  facet normal -1.000000e+000  0.000000e+000  0.000000e+000
    outer loop
      vertex -2.500000e-002 -5.982892e-003 -2.427355e-002
      vertex -2.500000e-002  8.719829e-001 -2.427355e-002
      vertex -2.500000e-002  8.660001e-001 -2.500000e-002
    endloop
  endfacet
  facet normal -1.000000e+000  0.000000e+000  0.000000e+000
    outer loop
      vertex -2.500000e-002 -5.982892e-003 -2.427355e-002
      vertex -2.500000e-002  8.660001e-001 -2.500000e-002
      vertex -2.500000e-002 -4.592426e-018 -2.500000e-002
    endloop
  endfacet
  facet normal  0.000000e+000  0.000000e+000 -1.000000e+000
    outer loop
      vertex  2.500000e-002  8.660001e-001 -2.500000e-002
      vertex  2.500000e-002 -4.592426e-018 -2.500000e-002
      vertex -2.500000e-002  8.660001e-001 -2.500000e-002
    endloop
  endfacet
  facet normal  0.000000e+000  0.000000e+000 -1.000000e+000
    outer loop
      vertex -2.500000e-002  8.660001e-001 -2.500000e-002
      vertex  2.500000e-002 -4.592426e-018 -2.500000e-002
      vertex -2.500000e-002 -4.592426e-018 -2.500000e-002
    endloop
  endfacet
  facet normal  -0.000000e+000 -1.205366e-001 -9.927089e-001
    outer loop
      vertex -2.500000e-002 -4.592426e-018 -2.500000e-002
      vertex  2.500000e-002 -4.592426e-018 -2.500000e-002
      vertex -2.500000e-002 -5.982892e-003 -2.427355e-002
    endloop
  endfacet
  facet normal  0.000000e+000 -1.205366e-001 -9.927089e-001
    outer loop
      vertex -2.500000e-002 -5.982892e-003 -2.427355e-002
      vertex  2.500000e-002 -4.592426e-018 -2.500000e-002
      vertex  2.500000e-002 -5.982892e-003 -2.427355e-002
    endloop
  endfacet
  facet normal  -0.000000e+000 -3.546051e-001 -9.350162e-001
    outer loop
      vertex -2.500000e-002 -5.982892e-003 -2.427355e-002
      vertex  2.500000e-002 -5.982892e-003 -2.427355e-002
      vertex -2.500000e-002 -1.161808e-002 -2.213640e-002
    endloop
  endfacet
  facet normal  0.000000e+000 -3.546051e-001 -9.350162e-001
    outer loop
      vertex -2.500000e-002 -1.161808e-002 -2.213640e-002
      vertex  2.500000e-002 -5.982892e-003 -2.427355e-002
      vertex  2.500000e-002 -1.161808e-002 -2.213640e-002
    endloop
  endfacet
  facet normal  -0.000000e+000 -5.680647e-001 -8.229839e-001
    outer loop
      vertex -2.500000e-002 -1.161808e-002 -2.213640e-002
      vertex  2.500000e-002 -1.161808e-002 -2.213640e-002
      vertex -2.500000e-002 -1.657807e-002 -1.871277e-002
    endloop
  endfacet
  facet normal  0.000000e+000 -5.680647e-001 -8.229839e-001
    outer loop
      vertex -2.500000e-002 -1.657807e-002 -1.871277e-002
      vertex  2.500000e-002 -1.161808e-002 -2.213640e-002
      vertex  2.500000e-002 -1.657807e-002 -1.871277e-002
    endloop
  endfacet
  facet normal  -0.000000e+000 -7.485108e-001 -6.631227e-001
    outer loop
      vertex -2.500000e-002 -1.657807e-002 -1.871277e-002
      vertex  2.500000e-002 -1.657807e-002 -1.871277e-002
      vertex -2.500000e-002 -2.057460e-002 -1.420162e-002
    endloop
  endfacet
  facet normal  0.000000e+000 -7.485108e-001 -6.631227e-001
    outer loop
      vertex -2.500000e-002 -2.057460e-002 -1.420162e-002
      vertex  2.500000e-002 -1.657807e-002 -1.871277e-002
      vertex  2.500000e-002 -2.057460e-002 -1.420162e-002
    endloop
  endfacet
  facet normal  -0.000000e+000 -8.854560e-001 -4.647233e-001
    outer loop
      vertex -2.500000e-002 -2.057460e-002 -1.420162e-002
      vertex  2.500000e-002 -2.057460e-002 -1.420162e-002
      vertex -2.500000e-002 -2.337541e-002 -8.865123e-003
    endloop
  endfacet
  facet normal  0.000000e+000 -8.854560e-001 -4.647233e-001
    outer loop
      vertex -2.500000e-002 -2.337541e-002 -8.865123e-003
      vertex  2.500000e-002 -2.057460e-002 -1.420162e-002
      vertex  2.500000e-002 -2.337541e-002 -8.865123e-003
    endloop
  endfacet
  facet normal  -0.000000e+000 -9.709418e-001 -2.393157e-001
    outer loop
      vertex -2.500000e-002 -2.337541e-002 -8.865123e-003
      vertex  2.500000e-002 -2.337541e-002 -8.865123e-003
      vertex -2.500000e-002 -2.481772e-002 -3.013417e-003
    endloop
  endfacet
  facet normal  0.000000e+000 -9.709418e-001 -2.393157e-001
    outer loop
      vertex -2.500000e-002 -2.481772e-002 -3.013417e-003
      vertex  2.500000e-002 -2.337541e-002 -8.865123e-003
      vertex  2.500000e-002 -2.481772e-002 -3.013417e-003
    endloop
  endfacet
  facet normal  0.000000e+000 -1.000000e+000  0.000000e+000
    outer loop
      vertex -2.500000e-002 -2.481772e-002 -3.013417e-003
      vertex  2.500000e-002 -2.481772e-002 -3.013417e-003
      vertex -2.500000e-002 -2.481772e-002  3.013417e-003
    endloop
  endfacet
  facet normal  0.000000e+000 -1.000000e+000  0.000000e+000
    outer loop
      vertex -2.500000e-002 -2.481772e-002  3.013417e-003
      vertex  2.500000e-002 -2.481772e-002 -3.013417e-003
      vertex  2.500000e-002 -2.481772e-002  3.013417e-003
    endloop
  endfacet
  facet normal  0.000000e+000 -9.709418e-001  2.393157e-001
    outer loop
      vertex -2.500000e-002 -2.481772e-002  3.013417e-003
      vertex  2.500000e-002 -2.481772e-002  3.013417e-003
      vertex -2.500000e-002 -2.337541e-002  8.865123e-003
    endloop
  endfacet
  facet normal  0.000000e+000 -9.709418e-001  2.393157e-001
    outer loop
      vertex -2.500000e-002 -2.337541e-002  8.865123e-003
      vertex  2.500000e-002 -2.481772e-002  3.013417e-003
      vertex  2.500000e-002 -2.337541e-002  8.865123e-003
    endloop
  endfacet
  facet normal  0.000000e+000 -8.854560e-001  4.647233e-001
    outer loop
      vertex -2.500000e-002 -2.337541e-002  8.865123e-003
      vertex  2.500000e-002 -2.337541e-002  8.865123e-003
      vertex -2.500000e-002 -2.057460e-002  1.420162e-002
    endloop
  endfacet
  facet normal  0.000000e+000 -8.854560e-001  4.647233e-001
    outer loop
      vertex -2.500000e-002 -2.057460e-002  1.420162e-002
      vertex  2.500000e-002 -2.337541e-002  8.865123e-003
      vertex  2.500000e-002 -2.057460e-002  1.420162e-002
    endloop
  endfacet
  facet normal  0.000000e+000 -7.485108e-001  6.631227e-001
    outer loop
      vertex -2.500000e-002 -2.057460e-002  1.420162e-002
      vertex  2.500000e-002 -2.057460e-002  1.420162e-002
      vertex -2.500000e-002 -1.657807e-002  1.871277e-002
    endloop
  endfacet
  facet normal  0.000000e+000 -7.485108e-001  6.631227e-001
    outer loop
      vertex -2.500000e-002 -1.657807e-002  1.871277e-002
      vertex  2.500000e-002 -2.057460e-002  1.420162e-002
      vertex  2.500000e-002 -1.657807e-002  1.871277e-002
    endloop
  endfacet
  facet normal  0.000000e+000 -5.680647e-001  8.229839e-001
    outer loop
      vertex -2.500000e-002 -1.657807e-002  1.871277e-002
      vertex  2.500000e-002 -1.657807e-002  1.871277e-002
      vertex -2.500000e-002 -1.161808e-002  2.213640e-002
    endloop
  endfacet
  facet normal  0.000000e+000 -5.680647e-001  8.229839e-001
    outer loop
      vertex -2.500000e-002 -1.161808e-002  2.213640e-002
      vertex  2.500000e-002 -1.657807e-002  1.871277e-002
      vertex  2.500000e-002 -1.161808e-002  2.213640e-002
    endloop
  endfacet
  facet normal  0.000000e+000 -3.546051e-001  9.350162e-001
    outer loop
      vertex -2.500000e-002 -1.161808e-002  2.213640e-002
      vertex  2.500000e-002 -1.161808e-002  2.213640e-002
      vertex -2.500000e-002 -5.982892e-003  2.427355e-002
    endloop
  endfacet
  facet normal  0.000000e+000 -3.546051e-001  9.350162e-001
    outer loop
      vertex -2.500000e-002 -5.982892e-003  2.427355e-002
      vertex  2.500000e-002 -1.161808e-002  2.213640e-002
      vertex  2.500000e-002 -5.982892e-003  2.427355e-002
    endloop
  endfacet
  facet normal  0.000000e+000 -1.205366e-001  9.927089e-001
    outer loop
      vertex -2.500000e-002 -5.982892e-003  2.427355e-002
      vertex  2.500000e-002 -5.982892e-003  2.427355e-002
      vertex -2.500000e-002  0.000000e+000  2.500000e-002
    endloop
  endfacet
  facet normal  0.000000e+000 -1.205366e-001  9.927089e-001
    outer loop
      vertex -2.500000e-002  0.000000e+000  2.500000e-002
      vertex  2.500000e-002 -5.982892e-003  2.427355e-002
      vertex  2.500000e-002  0.000000e+000  2.500000e-002
    endloop
  endfacet
  facet normal  0.000000e+000  0.000000e+000  1.000000e+000
    outer loop
      vertex  2.500000e-002  0.000000e+000  2.500000e-002
      vertex  2.500000e-002  8.660001e-001  2.500000e-002
      vertex -2.500000e-002  0.000000e+000  2.500000e-002
    endloop
  endfacet
  facet normal  0.000000e+000  0.000000e+000  1.000000e+000
    outer loop
      vertex -2.500000e-002  0.000000e+000  2.500000e-002
      vertex  2.500000e-002  8.660001e-001  2.500000e-002
      vertex -2.500000e-002  8.660001e-001  2.500000e-002
    endloop
  endfacet
  facet normal  0.000000e+000  1.205362e-001  9.927089e-001
    outer loop
      vertex -2.500000e-002  8.660001e-001  2.500000e-002
      vertex  2.500000e-002  8.660001e-001  2.500000e-002
      vertex -2.500000e-002  8.719829e-001  2.427355e-002
    endloop
  endfacet
  facet normal  -0.000000e+000  1.205362e-001  9.927089e-001
    outer loop
      vertex -2.500000e-002  8.719829e-001  2.427355e-002
      vertex  2.500000e-002  8.660001e-001  2.500000e-002
      vertex  2.500000e-002  8.719829e-001  2.427355e-002
    endloop
  endfacet
  facet normal  0.000000e+000  3.546048e-001  9.350162e-001
    outer loop
      vertex -2.500000e-002  8.719829e-001  2.427355e-002
      vertex  2.500000e-002  8.719829e-001  2.427355e-002
      vertex -2.500000e-002  8.776181e-001  2.213640e-002
    endloop
  endfacet
  facet normal  -0.000000e+000  3.546048e-001  9.350162e-001
    outer loop
      vertex -2.500000e-002  8.776181e-001  2.213640e-002
      vertex  2.500000e-002  8.719829e-001  2.427355e-002
      vertex  2.500000e-002  8.776181e-001  2.213640e-002
    endloop
  endfacet
  facet normal  0.000000e+000  5.680668e-001  8.229825e-001
    outer loop
      vertex -2.500000e-002  8.776181e-001  2.213640e-002
      vertex  2.500000e-002  8.776181e-001  2.213640e-002
      vertex -2.500000e-002  8.825781e-001  1.871277e-002
    endloop
  endfacet
  facet normal  -0.000000e+000  5.680668e-001  8.229825e-001
    outer loop
      vertex -2.500000e-002  8.825781e-001  1.871277e-002
      vertex  2.500000e-002  8.776181e-001  2.213640e-002
      vertex  2.500000e-002  8.825781e-001  1.871277e-002
    endloop
  endfacet
  facet normal  0.000000e+000  7.485116e-001  6.631218e-001
    outer loop
      vertex -2.500000e-002  8.825781e-001  1.871277e-002
      vertex  2.500000e-002  8.825781e-001  1.871277e-002
      vertex -2.500000e-002  8.865746e-001  1.420162e-002
    endloop
  endfacet
  facet normal  -0.000000e+000  7.485116e-001  6.631218e-001
    outer loop
      vertex -2.500000e-002  8.865746e-001  1.420162e-002
      vertex  2.500000e-002  8.825781e-001  1.871277e-002
      vertex  2.500000e-002  8.865746e-001  1.420162e-002
    endloop
  endfacet
  facet normal  0.000000e+000  8.854538e-001  4.647274e-001
    outer loop
      vertex -2.500000e-002  8.865746e-001  1.420162e-002
      vertex  2.500000e-002  8.865746e-001  1.420162e-002
      vertex -2.500000e-002  8.893754e-001  8.865123e-003
    endloop
  endfacet
  facet normal  -0.000000e+000  8.854538e-001  4.647274e-001
    outer loop
      vertex -2.500000e-002  8.893754e-001  8.865123e-003
      vertex  2.500000e-002  8.865746e-001  1.420162e-002
      vertex  2.500000e-002  8.893754e-001  8.865123e-003
    endloop
  endfacet
  facet normal  0.000000e+000  9.709417e-001  2.393166e-001
    outer loop
      vertex -2.500000e-002  8.893754e-001  8.865123e-003
      vertex  2.500000e-002  8.893754e-001  8.865123e-003
      vertex -2.500000e-002  8.908178e-001  3.013417e-003
    endloop
  endfacet
  facet normal  -0.000000e+000  9.709417e-001  2.393166e-001
    outer loop
      vertex -2.500000e-002  8.908178e-001  3.013417e-003
      vertex  2.500000e-002  8.893754e-001  8.865123e-003
      vertex  2.500000e-002  8.908178e-001  3.013417e-003
    endloop
  endfacet
  facet normal  0.000000e+000  1.000000e+000  0.000000e+000
    outer loop
      vertex -2.500000e-002  8.908178e-001  3.013417e-003
      vertex  2.500000e-002  8.908178e-001  3.013417e-003
      vertex -2.500000e-002  8.908178e-001 -3.013417e-003
    endloop
  endfacet
  facet normal  0.000000e+000  1.000000e+000  0.000000e+000
    outer loop
      vertex -2.500000e-002  8.908178e-001 -3.013417e-003
      vertex  2.500000e-002  8.908178e-001  3.013417e-003
      vertex  2.500000e-002  8.908178e-001 -3.013417e-003
    endloop
  endfacet
  facet normal  0.000000e+000  9.709417e-001 -2.393166e-001
    outer loop
      vertex -2.500000e-002  8.908178e-001 -3.013417e-003
      vertex  2.500000e-002  8.908178e-001 -3.013417e-003
      vertex -2.500000e-002  8.893754e-001 -8.865123e-003
    endloop
  endfacet
  facet normal  0.000000e+000  9.709417e-001 -2.393166e-001
    outer loop
      vertex -2.500000e-002  8.893754e-001 -8.865123e-003
      vertex  2.500000e-002  8.908178e-001 -3.013417e-003
      vertex  2.500000e-002  8.893754e-001 -8.865123e-003
    endloop
  endfacet
  facet normal  0.000000e+000  8.854538e-001 -4.647274e-001
    outer loop
      vertex -2.500000e-002  8.893754e-001 -8.865123e-003
      vertex  2.500000e-002  8.893754e-001 -8.865123e-003
      vertex -2.500000e-002  8.865746e-001 -1.420162e-002
    endloop
  endfacet
  facet normal  0.000000e+000  8.854538e-001 -4.647274e-001
    outer loop
      vertex -2.500000e-002  8.865746e-001 -1.420162e-002
      vertex  2.500000e-002  8.893754e-001 -8.865123e-003
      vertex  2.500000e-002  8.865746e-001 -1.420162e-002
    endloop
  endfacet
  facet normal  0.000000e+000  7.485116e-001 -6.631218e-001
    outer loop
      vertex -2.500000e-002  8.865746e-001 -1.420162e-002
      vertex  2.500000e-002  8.865746e-001 -1.420162e-002
      vertex -2.500000e-002  8.825781e-001 -1.871277e-002
    endloop
  endfacet
  facet normal  0.000000e+000  7.485116e-001 -6.631218e-001
    outer loop
      vertex -2.500000e-002  8.825781e-001 -1.871277e-002
      vertex  2.500000e-002  8.865746e-001 -1.420162e-002
      vertex  2.500000e-002  8.825781e-001 -1.871277e-002
    endloop
  endfacet
  facet normal  0.000000e+000  5.680668e-001 -8.229825e-001
    outer loop
      vertex -2.500000e-002  8.825781e-001 -1.871277e-002
      vertex  2.500000e-002  8.825781e-001 -1.871277e-002
      vertex -2.500000e-002  8.776181e-001 -2.213640e-002
    endloop
  endfacet
  facet normal  0.000000e+000  5.680668e-001 -8.229825e-001
    outer loop
      vertex -2.500000e-002  8.776181e-001 -2.213640e-002
      vertex  2.500000e-002  8.825781e-001 -1.871277e-002
      vertex  2.500000e-002  8.776181e-001 -2.213640e-002
    endloop
  endfacet
  facet normal  0.000000e+000  3.546048e-001 -9.350162e-001
    outer loop
      vertex -2.500000e-002  8.776181e-001 -2.213640e-002
      vertex  2.500000e-002  8.776181e-001 -2.213640e-002
      vertex -2.500000e-002  8.719829e-001 -2.427355e-002
    endloop
  endfacet
  facet normal  0.000000e+000  3.546048e-001 -9.350162e-001
    outer loop
      vertex -2.500000e-002  8.719829e-001 -2.427355e-002
      vertex  2.500000e-002  8.776181e-001 -2.213640e-002
      vertex  2.500000e-002  8.719829e-001 -2.427355e-002
    endloop
  endfacet
  facet normal  0.000000e+000  1.205362e-001 -9.927089e-001
    outer loop
      vertex -2.500000e-002  8.719829e-001 -2.427355e-002
      vertex  2.500000e-002  8.719829e-001 -2.427355e-002
      vertex -2.500000e-002  8.660001e-001 -2.500000e-002
    endloop
  endfacet
  facet normal  0.000000e+000  1.205362e-001 -9.927089e-001
    outer loop
      vertex -2.500000e-002  8.660001e-001 -2.500000e-002
      vertex  2.500000e-002  8.719829e-001 -2.427355e-002
      vertex  2.500000e-002  8.660001e-001 -2.500000e-002
    endloop
  endfacet
endsolid CATIA STL
